#!OML:ASF F:\VICON\USERDATA\INSTALL\rory3\rory3.ASF
:FULLY-SPECIFIED
:DEGREES
395
root 0.517744 17.7685 -19.706 -2.37846 4.87709 -0.758948
lowerback 9.30738 -0.0584529 -1.08731
upperback 0.891354 -0.0625697 2.72934
thorax -4.29065 0.0120061 3.46543
lowerneck -14.517 -4.9964 -9.45747
upperneck 12.6012 -5.92381 7.29
head 6.72772 -2.72083 3.28657
rclavicle 1.42628e-014 -7.95139e-016
rhumerus -28.7606 -9.79057 -79.9801
rradius 32.344
rwrist 9.58708
rhand -12.4334 5.49809
rfingers 7.12502
rthumb 13.6393 -24.035
lclavicle 1.42628e-014 -7.95139e-016
lhumerus -31.5803 7.39877 84.2624
lradius 29.4404
lwrist -2.58674
lhand -20.6564 20.8041
lfingers 7.12502
lthumb 5.7061 50.7073
rfemur -10.1949 4.64146 20.6103
rtibia 22.0733
rfoot -21.0701 -18.5149
rtoes 7.83016
lfemur -13.1412 -7.28119 -17.2769
ltibia 21.7871
lfoot -25.5192 6.65045
ltoes -5.52082
396
root 0.517843 17.7703 -19.7286 -2.34207 4.95896 -0.685939
lowerback 9.25214 -0.0912459 -1.21879
upperback 0.949538 -0.119977 2.74739
thorax -4.19486 -0.0158792 3.56507
lowerneck -14.7155 -4.98512 -9.64021
upperneck 12.77 -5.87733 7.4033
head 6.82098 -2.69417 3.35616
rclavicle -2.08724e-015 1.19271e-014
rhumerus -28.5566 -9.79473 -80.0646
rradius 32.1184
rwrist 9.20236
rhand -12.1131 6.51567
rfingers 7.12502
rthumb 13.948 -22.9965
lclavicle -2.08724e-015 1.19271e-014
lhumerus -31.5662 7.51667 84.192
lradius 29.4436
lwrist -2.74315
lhand -20.5122 20.7263
lfingers 7.12502
lthumb 5.84531 50.6256
rfemur -10.2958 4.73771 20.5065
rtibia 22.0323
rfoot -20.9989 -18.5375
rtoes 8.1537
lfemur -13.2534 -7.25524 -17.369
ltibia 21.7498
lfoot -25.5029 6.74513
ltoes -7.3984
397
root 0.516702 17.7688 -19.7554 -2.37857 5.07783 -0.818894
lowerback 9.2669 -0.138514 -1.19763
upperback 1.06506 -0.177834 2.85129
thorax -4.07835 -0.046926 3.6683
lowerneck -15.1027 -5.04319 -9.92753
upperneck 12.9821 -5.90003 7.6026
head 6.9729 -2.69473 3.46098
rclavicle -3.97569e-016 2.70347e-014
rhumerus -28.2865 -9.49821 -80.197
rradius 31.8469
rwrist 7.77277
rhand -12.4293 9.47224
rfingers 7.12502
rthumb 13.6433 -20.0606
lclavicle -3.97569e-016 2.70347e-014
lhumerus -31.438 7.76006 84.1618
lradius 29.4025
lwrist -2.76449
lhand -20.5857 20.7892
lfingers 7.12502
lthumb 5.77435 50.6905
rfemur -10.3068 4.86781 20.6438
rtibia 21.9336
rfoot -20.8774 -18.5712
rtoes 8.70576
lfemur -13.3333 -7.27333 -17.2159
ltibia 21.7958
lfoot -25.6093 6.65267
ltoes -8.34478
398
root 0.520157 17.7682 -19.7807 -2.3393 5.24831 -0.898898
lowerback 9.24472 -0.198371 -1.09434
upperback 1.11198 -0.247322 2.862
thorax -4.01242 -0.0843431 3.62871
lowerneck -15.2199 -5.15801 -9.91392
upperneck 12.7731 -6.03394 7.58051
head 6.93661 -2.75706 3.43318
rclavicle -3.18055e-015 1.35174e-014
rhumerus -28.0925 -9.13387 -80.4473
rradius 31.5359
rwrist 6.23433
rhand -14.395 13.4734
rfingers 7.12502
rthumb 11.7483 -16.1771
lclavicle -3.18055e-015 1.35174e-014
lhumerus -31.4493 7.78493 84.1331
lradius 29.5472
lwrist -2.60933
lhand -20.7336 20.841
lfingers 7.12502
lthumb 5.63155 50.7462
rfemur -10.3644 4.7806 20.6889
rtibia 21.7946
rfoot -20.7856 -18.5674
rtoes 8.72034
lfemur -13.5109 -7.33405 -17.1381
ltibia 21.8849
lfoot -25.7369 6.54698
ltoes -7.75048
399
root 0.524226 17.7718 -19.8036 -2.29387 5.47586 -0.975439
lowerback 9.26607 -0.270846 -0.92365
upperback 1.03614 -0.326643 2.82189
thorax -4.09893 -0.124779 3.50093
lowerneck -15.5652 -4.77043 -10.253
upperneck 13.6653 -5.53434 8.13043
head 7.26498 -2.48237 3.73112
rclavicle 0 -1.59028e-015
rhumerus -28.2604 -8.98467 -80.5624
rradius 31.769
rwrist 6.59762
rhand -14.9789 13.706
rfingers 7.12502
rthumb 11.1851 -15.9759
lclavicle 0 -1.59028e-015
lhumerus -31.7418 7.72446 84.0102
lradius 29.7934
lwrist -2.59219
lhand -20.7043 20.7445
lfingers 7.12502
lthumb 5.65986 50.6489
rfemur -10.3798 4.67813 20.7233
rtibia 21.62
rfoot -20.762 -18.5926
rtoes 8.84
lfemur -13.7246 -7.37574 -17.0758
ltibia 21.975
lfoot -25.8651 6.35766
ltoes -6.65483
400
root 0.526494 17.7782 -19.8211 -2.23473 5.67122 -0.936619
lowerback 9.17494 -0.249431 -0.871021
upperback 1.02802 -0.29755 2.72182
thorax -4.05919 -0.112356 3.36127
lowerneck -15.0604 -5.15547 -9.85203
upperneck 12.7214 -6.08417 7.74138
head 6.90067 -2.76803 3.4727
rclavicle 1.0138e-014 7.95139e-015
rhumerus -28.4104 -9.17933 -80.6467
rradius 32.0394
rwrist 6.74809
rhand -14.5597 12.4166
rfingers 7.12502
rthumb 11.5894 -17.243
lclavicle 1.0138e-014 7.95139e-015
lhumerus -31.7128 7.60061 83.8987
lradius 29.7422
lwrist -2.66682
lhand -20.5777 19.962
lfingers 7.12502
lthumb 5.78212 49.8631
rfemur -10.3954 4.6416 20.6375
rtibia 21.4606
rfoot -20.6282 -18.6265
rtoes 9.14128
lfemur -13.892 -7.38067 -17.1385
ltibia 22.0288
lfoot -25.9881 6.27597
ltoes -6.5246
401
root 0.527211 17.7827 -19.8406 -2.16645 5.8262 -0.94395
lowerback 9.11445 -0.214349 -0.819843
upperback 0.960992 -0.248695 2.63494
thorax -4.09895 -0.08853 3.23513
lowerneck -14.7221 -5.30739 -9.57162
upperneck 12.4648 -6.33856 7.54147
head 6.76773 -2.90038 3.33665
rclavicle 2.39536e-014 7.95139e-015
rhumerus -28.6066 -9.32809 -80.7179
rradius 32.189
rwrist 6.62152
rhand -13.4917 10.4311
rfingers 7.12502
rthumb 12.6192 -19.1677
lclavicle 2.39536e-014 7.95139e-015
lhumerus -31.715 7.41985 83.7852
lradius 29.629
lwrist -2.53007
lhand -20.3448 19.711
lfingers 7.12502
lthumb 6.00697 49.6058
rfemur -10.4628 4.5515 20.6229
rtibia 21.3271
rfoot -20.4547 -18.6499
rtoes 9.28876
lfemur -14.0774 -7.3509 -17.1323
ltibia 22.0575
lfoot -26.086 6.19147
ltoes -6.57583
402
root 0.527031 17.7803 -19.8665 -2.12564 5.92403 -1.0343
lowerback 9.15194 -0.207033 -0.797583
upperback 0.829908 -0.23314 2.65781
thorax -4.25753 -0.0779811 3.24654
lowerneck -14.223 -5.28094 -9.52265
upperneck 12.2928 -6.34267 7.4932
head 6.6247 -2.91488 3.32058
rclavicle -9.14409e-015 0
rhumerus -28.8738 -9.19459 -80.7311
rradius 32.2837
rwrist 6.47705
rhand -10.2318 4.18307
rfingers 7.12502
rthumb 15.7604 -25.1953
lclavicle -9.14409e-015 0
lhumerus -32.0061 7.38974 83.6889
lradius 29.6026
lwrist -2.4816
lhand -20.3236 19.2601
lfingers 7.12502
lthumb 6.02739 49.1544
rfemur -10.5914 4.55422 20.6963
rtibia 21.256
rfoot -20.4155 -18.6744
rtoes 9.65938
lfemur -14.2705 -7.24456 -17.0396
ltibia 22.0781
lfoot -25.9229 6.24684
ltoes -6.25363
403
root 0.529953 17.7766 -19.8923 -2.066 5.95948 -1.11713
lowerback 9.0919 -0.19162 -0.787362
upperback 0.795093 -0.208249 2.72479
thorax -4.26168 -0.0648625 3.30742
lowerneck -13.9875 -5.19029 -9.63658
upperneck 12.2067 -6.22117 7.54547
head 6.55174 -2.86268 3.37349
rclavicle 5.86415e-015 -2.78299e-014
rhumerus -28.9503 -8.94477 -80.7373
rradius 32.3589
rwrist 6.5316
rhand -13.0611 10.6013
rfingers 7.12502
rthumb 13.0343 -18.9715
lclavicle 5.86415e-015 -2.78299e-014
lhumerus -32.2023 7.51474 83.6635
lradius 29.6345
lwrist -2.75277
lhand -20.4835 19.2368
lfingers 7.12502
lthumb 5.87299 49.1354
rfemur -10.8015 4.45913 20.7445
rtibia 21.2786
rfoot -20.3244 -18.5748
rtoes 9.7051
lfemur -14.4871 -7.08106 -16.969
ltibia 22.124
lfoot -25.7714 6.58104
ltoes -6.15807
404
root 0.533352 17.7763 -19.9179 -2.00069 6.04856 -0.999534
lowerback 9.13041 -0.181909 -0.93951
upperback 0.788749 -0.211282 2.7061
thorax -4.28915 -0.0633721 3.37509
lowerneck -14.0641 -5.17886 -9.59992
upperneck 12.2646 -6.19767 7.47518
head 6.57761 -2.85362 3.34603
rclavicle -5.06901e-015 2.06736e-014
rhumerus -28.895 -8.8729 -80.7816
rradius 32.5222
rwrist 6.92423
rhand -13.8763 12.072
rfingers 7.12502
rthumb 12.2483 -17.5493
lclavicle -5.06901e-015 2.06736e-014
lhumerus -32.1557 7.72591 83.5833
lradius 29.5325
lwrist -3.00784
lhand -20.5046 19.4853
lfingers 7.12502
lthumb 5.85262 49.3844
rfemur -11.0027 4.30101 20.5606
rtibia 21.377
rfoot -20.16 -18.5019
rtoes 9.66033
lfemur -14.6421 -6.77278 -17.1514
ltibia 22.1416
lfoot -25.7852 7.1365
ltoes -5.7394
405
root 0.540171 17.7738 -19.9421 -1.83493 6.03701 -0.835395
lowerback 9.14752 -0.152445 -1.05908
upperback 0.723737 -0.186573 2.63313
thorax -4.36796 -0.0479677 3.36425
lowerneck -14.3947 -5.22038 -9.54929
upperneck 12.4694 -6.23798 7.43494
head 6.70009 -2.86688 3.31506
rclavicle -4.27387e-015 -4.77083e-015
rhumerus -28.8461 -8.74789 -80.8979
rradius 32.7032
rwrist 7.12849
rhand -13.6585 11.1749
rfingers 7.12502
rthumb 12.4584 -18.4338
lclavicle -4.27387e-015 -4.77083e-015
lhumerus -32.1239 7.94859 83.4031
lradius 29.3104
lwrist -3.09204
lhand -20.5524 19.0259
lfingers 7.12502
lthumb 5.80648 48.9263
rfemur -11.3535 4.14225 20.3073
rtibia 21.4914
rfoot -19.9961 -18.3925
rtoes 9.41152
lfemur -14.8285 -6.23126 -17.4266
ltibia 22.1205
lfoot -25.5837 8.15702
ltoes -6.40367
